HIERARCHY
ROOT Hips
{
  OFFSET -9.97696 90.5413 -43.1923
  CHANNELS 6 Xposition Yposition Zposition Zrotation Xrotation Yrotation
  JOINT ToSpine
  {
    OFFSET -2.69724 7.43032 -0.144315
    CHANNELS 3 Zrotation Xrotation Yrotation
    JOINT Spine
    {
      OFFSET -0.0310711 10.7595 1.96963
      CHANNELS 3 Zrotation Xrotation Yrotation
      JOINT Spine1
      {
        OFFSET 13.1342 3.43533 0.764692
        CHANNELS 3 Zrotation Xrotation Yrotation
        JOINT Neck
        {
          OFFSET 29.8703 7.82586 -0.130764
          CHANNELS 3 Zrotation Xrotation Yrotation
          JOINT Head
          {
            OFFSET 9.52751 0.295786 -0.907742
            CHANNELS 3 Zrotation Xrotation Yrotation
            End Site
            {
              OFFSET 16.4037 0.713936 2.7358
            }
          }
        }
        JOINT LeftShoulder
        {
          OFFSET 27.5574 4.95586 2.47156
          CHANNELS 3 Zrotation Xrotation Yrotation
          JOINT LeftArm
          {
            OFFSET 1.20734 -0.998971 20.1238
            CHANNELS 3 Zrotation Xrotation Yrotation
            JOINT LeftForeArm
            {
              OFFSET 26.8049 -0.0536703 -0.155908
              CHANNELS 3 Zrotation Xrotation Yrotation
              JOINT LeftHand
              {
                OFFSET 26.6817 0 0.320147
                CHANNELS 3 Zrotation Xrotation Yrotation
                End Site
                {
                  OFFSET 18.6119 0 0.382219
                }
              }
            }
          }
        }
        JOINT RightShoulder
        {
          OFFSET 27.5927 4.71444 -2.65209
          CHANNELS 3 Zrotation Xrotation Yrotation
          JOINT RightArm
          {
            OFFSET 2.83739 -1.17114 -18.7564
            CHANNELS 3 Zrotation Xrotation Yrotation
            JOINT RightForeArm
            {
              OFFSET 28.839 -0.0548439 1.22491
              CHANNELS 3 Zrotation Xrotation Yrotation
              JOINT RightHand
              {
                OFFSET 26.5114 0 -0.101894
                CHANNELS 3 Zrotation Xrotation Yrotation
                End Site
                {
                  OFFSET 18.2168 0 0
                }
              }
            }
          }
        }
      }
    }
  }
  JOINT LeftUpLeg
  {
    OFFSET -4.76168 -1.9167 -10.2353
    CHANNELS 3 Zrotation Xrotation Yrotation
    JOINT LeftLeg
    {
      OFFSET 2.55951 -42.0585 -8.02213
      CHANNELS 3 Zrotation Xrotation Yrotation
      JOINT LeftFoot
      {
        OFFSET 3.16357 -42.5282 -3.95426
        CHANNELS 3 Zrotation Xrotation Yrotation
        JOINT LeftToeBase
        {
          OFFSET 0.346054 -6.02161 12.8035
          CHANNELS 3 Zrotation Xrotation Yrotation
          End Site
          {
            OFFSET 0.134235 -1.35082 5.13018
          }
        }
      }
    }
  }
  JOINT RightUpLeg
  {
    OFFSET -4.94151 -1.41743 10.6446
    CHANNELS 3 Zrotation Xrotation Yrotation
    JOINT RightLeg
    {
      OFFSET -2.56294 -42.0364 -7.94377
      CHANNELS 3 Zrotation Xrotation Yrotation
      JOINT RightFoot
      {
        OFFSET -3.0952 -42.555 -4.02241
        CHANNELS 3 Zrotation Xrotation Yrotation
        JOINT RightToeBase
        {
          OFFSET -0.0828122 -6.13587 12.8035
          CHANNELS 3 Zrotation Xrotation Yrotation
          End Site
          {
            OFFSET -0.131328 -1.35082 5.13018
          }
        }
      }
    }
  }
}
MOTION
Frames:	20
Frame Time:	0.0333333
-11.441 97.4218 -58.5203 64.939 -39.8184 -14.8092 -70.1915 0 88.8779 78.572 74.3454 4.38041 0.449593 23.4616 3.64328 -148.976 38.5645 174.72 171.234 77.3867 -140.096 0.144692 -14.6462 -30.6691 -57.5414 29.2533 -124.834 20.9689 8.87656 -67.4966 0.420957 0.000575918 0.35866 -2.1476 6.59015 46.9035 -101.096 -21.2513 79.4459 9.47479 -17.3194 29.3462 0.58676 0.00033077 0.0646653 -45.7542 3.8041 103.88 -2.0488 30.374 4.64298 2.20814 -9.77178 -0.958199 -1.41544 0.525006 5.67415 -59.1715 -7.19844 64.6786 1.03483 33.0085 -5.16788 -12.1126 -8.9829 1.4697 2.01358 -11.087 -10.3623 
-11.8617 97.3317 -58.7343 64.3167 -41.3053 -16.4097 -70.1915 0 88.8779 77.7526 74.4666 5.22385 0.401263 23.7217 3.36382 -149.975 38.1394 176.15 171.98 76.929 -140.918 0.220085 -14.2625 -30.7359 -57.2371 29.1373 -124.672 19.8073 9.94035 -63.8409 0.420957 0.000575918 0.35866 -2.19567 6.64502 47.3269 -99.3524 -22.2747 79.48 8.88454 -18.0707 27.464 0.58676 0.00033077 0.0646653 -45.7251 3.4703 104.309 -2.00932 30.2558 5.57062 2.12309 -9.86239 -0.960163 -1.58324 0.947 5.43846 -60.2574 -6.89587 64.664 1.18909 32.1701 -7.13703 -12.4136 -9.40578 1.47425 1.94703 -10.6913 -9.30199 
-12.3794 97.1825 -59.0772 63.2512 -43.0439 -18.3383 -70.1915 0 88.8779 77.615 74.6732 5.7615 0.182649 24.0853 2.98384 -151.201 37.6446 177.975 172.466 76.3862 -141.5 0.17281 -14.3708 -31.3839 -57.5089 29.1992 -123.74 20.3872 11.8849 -60.467 0.420957 0.000575918 0.35866 -2.22267 6.80695 46.9344 -98.5447 -23.3929 79.033 8.41925 -19.4923 26.191 0.58676 0.00033077 0.0646653 -45.2684 3.42374 104.937 -1.92269 30.4505 6.95462 1.74705 -10.1604 -0.963802 -1.7091 1.56226 4.58265 -60.6458 -6.05 66.5934 1.66215 30.7788 -8.66342 -12.7067 -8.18915 1.52542 2.06304 -12.8593 -10.1982 
-13.0715 97.0605 -59.3568 62.264 -44.7966 -20.3333 -70.1915 0 88.8779 77.7906 74.8823 5.6543 0.0673941 24.4155 2.61535 -151.973 37.0522 178.739 174.53 75.9099 -143.069 0.237941 -14.0394 -31.5045 -58.3049 29.8855 -122.168 21.4927 13.726 -58.3861 0.420957 0.000575918 0.35866 -2.24574 6.85992 47.0073 -97.3569 -24.5126 78.8173 8.10447 -20.7657 25.4631 0.58676 0.00033077 0.0646653 -44.9489 3.40963 105.635 -1.89132 30.5784 8.19817 1.25149 -10.4966 -0.966679 -2.19073 2.56277 4.4903 -60.8137 -5.37241 69.3999 2.1342 28.8673 -11.8787 -12.1934 -8.17029 1.49686 2.05429 -14.521 -7.89265 
-13.6793 96.9949 -59.5708 61.4174 -46.4169 -22.272 -70.1915 0 88.8779 77.9098 75.0021 5.49297 0.027566 24.6512 2.29927 -152.874 36.4645 179.691 176.414 75.4443 -144.889 0.203894 -14.1384 -31.8626 -58.1446 30.2005 -120.7 19.7413 13.8148 -55.8368 0.420957 0.000575918 0.35866 -2.28144 6.96665 47.0035 -95.7833 -25.735 78.5521 7.95663 -20.2002 25.5566 0.58676 0.00033077 0.0646653 -45.1039 3.36125 106.402 -2.03734 30.0674 9.41766 1.10642 -10.0852 -0.932977 -2.29075 2.62194 4.79751 -61.145 -4.62071 73.4337 2.73168 26.0121 -15.7628 -12.1695 -8.716 1.48353 2.09615 -15.28 -8.08289 
-14.4597 97.0186 -59.7814 60.3632 -47.9246 -23.9366 -70.1915 0 88.8779 78.651 74.9124 5.2698 -0.030871 24.718 1.74379 -153.706 35.8517 -179.351 178.727 74.9835 -147.243 0.204572 -14.095 -32.0987 -58.8541 30.7658 -119.122 19.9658 15.4968 -53.1484 0.420957 0.000575918 0.35866 -2.26493 6.97957 46.718 -94.1518 -27.4025 78.5465 8.08146 -20.1887 25.7295 0.58676 0.00033077 0.0646653 -45.1264 3.71978 106.637 -2.36326 29.4565 11.0586 0.987476 -9.69026 -0.899342 -2.45213 2.9359 4.81164 -61.0268 -3.87059 75.756 2.76958 24.3784 -17.6444 -11.4644 -9.93499 1.41048 1.98386 -13.3347 -7.82385 
-15.2352 96.9692 -59.9935 59.8369 -49.0378 -25.3923 -70.1915 0 88.8779 78.7799 74.6195 4.96902 0.0996319 24.4092 1.67902 -154.254 35.3445 -177.984 178.005 74.3964 -146.293 0.153627 -14.2379 -32.6285 -59.5214 31.1558 -117.03 19.5995 16.6594 -50.6496 0.420957 0.000575918 0.35866 -2.24779 7.06033 46.1192 -90.955 -29.0107 79.6581 7.31191 -18.6904 25.5778 0.58676 0.00033077 0.0646653 -45.5075 3.19784 105.698 -2.66721 28.2846 13.6827 0.739075 -8.96245 -0.835245 -2.45895 2.98455 4.73694 -60.7796 -4.16595 76.0952 2.73133 24.0599 -17.8154 -11.6744 -10.9027 1.4199 1.82895 -12.1454 -6.8615 
-15.9965 97.1732 -60.1739 59.0534 -50.4006 -26.9485 -70.1915 0 88.8779 79.2081 74.4292 4.48443 -0.056422 24.1969 1.74252 -153.87 34.7057 -178.345 -176.511 74.0428 -150.976 0.134317 -14.2668 -32.9667 -60.1737 31.9381 -114.757 18.9181 17.6831 -47.946 0.420957 0.000575918 0.35866 -2.22339 6.88865 46.5636 -86.7266 -29.9145 81.111 7.04772 -17.3757 25.8583 0.58676 0.00033077 0.0646653 -46.2825 2.68614 104.073 -3.04883 26.3696 17.0996 0.6025 -7.68252 -0.732775 -2.35227 2.82645 4.61935 -60.6952 -4.10608 77.0594 2.68564 23.3728 -15.4954 -9.08938 -12.5033 1.29423 1.77714 -8.00971 -8.51011 
-16.8402 97.2018 -60.2371 57.8428 -52.098 -28.9657 -70.1915 0 88.8779 77.8721 74.3289 6.06905 0.427002 24.1997 1.40491 -153.394 34.0262 -178.181 -171.885 73.4921 -154.21 0.126733 -14.2442 -33.2993 -59.6099 32.1039 -113.357 16.4134 17.4487 -44.0123 0.420957 0.000575918 0.35866 -2.18417 6.90453 45.9468 -83.3533 -31.3538 82.3431 7.59151 -17.1491 26.523 0.58676 0.00033077 0.0646653 -46.93 2.37086 102.271 -3.37898 24.8566 20.9668 0.147639 -6.83211 -0.638149 -2.38146 2.91424 4.55622 -60.7259 -4.15654 77.7194 2.67143 22.314 -15.4546 -12.2221 -11.2746 1.38841 1.65213 -11.1926 -3.82239 
-17.6597 97.3489 -60.3727 56.8 -52.987 -29.9254 -70.1915 0 88.8779 77.1963 73.6175 7.67043 0.873492 23.5913 1.08761 -153.67 33.4199 -177.723 -169.764 72.9421 -155.831 0.107149 -14.2446 -33.8108 -60.5682 33.2329 -110.668 15.1753 18.1396 -40.5988 0.420957 0.000575918 0.35866 -2.12308 6.73631 45.8599 -80.1407 -32.2744 83.7242 7.76581 -16.3858 27.074 0.58676 0.00033077 0.0646653 -47.0879 2.60669 100.906 -3.2358 23.6335 23.3235 -0.228936 -6.07314 -0.550248 -2.48728 3.41605 3.94351 -60.6401 -3.61288 78.1103 2.87421 21.5605 -14.4682 -11.0963 -11.0523 1.37946 1.37145 -10.1588 -2.21402 
-18.5999 97.5145 -60.3852 55.685 -54.3224 -31.3448 -70.1915 0 88.8779 77.2477 73.2399 7.83219 0.947587 23.1462 1.29273 -154.157 32.7275 -177.496 -167.667 72.3138 -157.763 0.0048979 -14.5502 -34.57 -61.9533 34.5941 -107.381 13.7259 18.7693 -36.7322 0.420957 0.000575918 0.35866 -2.12231 6.71391 45.953 -77.7291 -32.8683 84.5308 7.7443 -15.348 27.6879 0.58676 0.00033077 0.0646653 -47.8745 2.74102 99.7281 -2.97633 21.9056 26.0197 -0.815278 -5.43341 -0.44986 -2.91474 4.50704 3.50731 -60.5275 -2.9547 78.688 2.76592 21.0451 -11.8015 -9.99036 -11.2282 1.34196 1.44255 -8.16375 -4.84326 
-19.6002 97.6013 -60.4229 54.55 -55.4848 -32.7561 -70.1915 0 88.8779 77.836 72.7741 7.42363 0.815293 22.6285 1.3457 -154.238 31.884 -178.074 -164.441 71.517 -160.539 -0.00109596 -14.602 -34.4156 -63.4539 36.6602 -104.329 12.4321 19.7182 -32.7178 0.420957 0.000575918 0.35866 -2.10188 6.60598 46.1677 -76.694 -33.5867 84.6473 7.93573 -15.0823 28.2996 0.58676 0.00033077 0.0646653 -48.3541 2.99153 98.9934 -2.63561 20.7025 27.5906 -1.48367 -4.61532 -0.321319 -3.18967 4.79977 4.03273 -60.4608 -2.36707 79.1529 2.56822 20.4454 -11.2556 -7.96619 -11.9769 1.28076 0.866891 -5.53035 -2.14149 
-20.5331 97.6014 -60.4618 53.4806 -56.7316 -34.1311 -70.1915 0 88.8779 78.1855 72.2352 7.42999 1.15243 22.0846 1.15699 -154.538 31.0854 -178.18 -163.493 70.752 -160.921 -0.0825111 -14.8576 -34.8791 -66.9607 38.5689 -99.4911 11.904 21.8644 -29.8242 0.420957 0.000575918 0.35866 -2.10688 6.66067 45.9813 -76.2345 -34.3368 84.7244 8.07865 -15.2643 28.431 0.58676 0.00033077 0.0646653 -48.7538 3.39512 98.6647 -2.25138 20.035 29.0807 -2.05269 -4.18888 -0.228456 -3.3725 5.27955 3.82696 -60.4847 -1.84724 79.3901 2.47717 20.0483 -8.90909 -6.84478 -12.4996 1.26347 0.832682 -3.5385 -3.08325 
-21.5398 97.652 -60.455 51.7441 -58.2344 -36.1448 -70.1915 0 88.8779 78.5064 71.9576 7.55588 1.33224 21.8481 0.962077 -154.63 30.2598 -179.045 -160.424 69.9063 -163.904 -0.123913 -14.9532 -35.2823 -71.706 40.0443 -93.542 11.4492 24.5796 -28.1544 0.420957 0.000575918 0.35866 -2.10954 6.55959 46.5007 -76.2313 -34.6307 84.4319 7.59461 -14.3192 28.457 0.58676 0.00033077 0.0646653 -49.1439 4.05501 98.5228 -1.98573 19.4034 30.2863 -2.22126 -3.31216 -0.126915 -2.94653 4.34078 3.96194 -60.0136 -1.47356 79.4863 2.61416 20.2753 -8.03103 -8.22985 -12.1677 1.28726 0.548134 -4.06095 -0.562769 
-22.3806 97.6632 -60.5839 49.7408 -59.6932 -38.6192 -70.1915 0 88.8779 78.7205 71.7132 7.80784 1.71529 21.6852 0.677473 -155.007 29.427 -179.705 -157.799 69.0287 -166.34 -0.17535 -15.2158 -34.9991 -76.6074 41.7618 -87.6025 10.9733 26.9315 -26.9877 0.420957 0.000575918 0.35866 -2.06105 6.43144 46.4129 -75.8241 -35.2412 84.7818 6.92554 -13.2325 28.1189 0.58676 0.00033077 0.0646653 -49.3559 4.56732 98.54 -1.92102 19.1824 31.544 -2.88187 -3.13095 -0.0415059 -2.72677 3.69881 4.36279 -59.2876 -1.34786 79.4151 2.61329 20.9379 -5.45353 -7.97506 -12.1957 1.28427 0.625234 -3.50446 -1.59933 
-23.1757 97.5453 -60.7404 47.2046 -61.2898 -41.5818 -70.1915 0 88.8779 80.1947 71.6442 6.66268 1.5767 21.4935 0.994559 -156.305 28.5906 -179.319 -157.938 68.2318 -166.922 -0.0988861 -14.8802 -35.1248 -78.9433 43.1287 -82.9722 11.2686 27.7792 -26.9653 0.420957 0.000575918 0.35866 -2.07726 6.60979 45.7936 -75.477 -35.9801 84.7971 6.74626 -13.0007 27.9262 0.58676 0.00033077 0.0646653 -49.2263 5.5681 99.2876 -2.26442 19.8285 31.7995 -2.88429 -3.17795 -0.0463802 -2.64783 3.17978 5.11854 -58.2088 -1.14489 79.468 2.45928 22.273 -3.37531 -7.91141 -12.5819 1.28624 0.540172 -3.00605 -1.35585 
-23.9334 97.4229 -60.7639 44.9898 -63.1266 -44.2198 -70.1915 0 88.8779 83.4377 71.6893 3.61417 1.04616 21.3636 1.36982 -156.646 27.712 179.889 -155.537 67.2384 -169.348 -0.0357344 -14.649 -34.9722 -79.1073 44.6578 -79.408 10.9866 25.6526 -27.3086 0.420957 0.000575918 0.35866 -2.22317 6.905 46.4852 -75.1273 -36.0102 84.2489 6.81783 -13.1679 27.9358 0.58676 0.00033077 0.0646653 -49.2018 6.96375 101.134 -2.65357 21.4112 27.6366 -2.37239 -3.32208 -0.112353 -2.26305 2.15006 5.76666 -57.7724 -0.799996 79.5989 2.19954 23.3858 -2.04482 -7.88583 -13.2702 1.29234 0.128441 -1.9756 0.632256 
-24.414 97.2708 -60.7794 42.8305 -64.8293 -46.9879 -70.1915 0 88.8779 86.1735 71.667 0.888363 0.537707 21.156 1.95375 -156.822 26.9385 179.354 -153.772 66.3345 -171.167 0.0136749 -14.4437 -34.9876 -79.9241 46.7935 -75.5384 11.0804 23.763 -28.0035 0.420957 0.000575918 0.35866 -2.10555 6.73067 45.6365 -73.5956 -36.0566 84.927 6.24626 -12.6225 27.3135 0.58676 0.00033077 0.0646653 -48.7866 7.56972 102.988 -2.66629 23.9028 17.1536 -1.17356 -3.36451 -0.238574 -0.46793 -1.48369 5.9718 -57.4355 -0.898894 79.4855 2.01637 24.6907 -0.165096 -7.84971 -14.0007 1.2986 -0.0894757 -1.26456 1.51353 
-24.7485 97.2103 -60.7864 40.5812 -66.2321 -49.7873 -70.1915 0 88.8779 88.3551 71.6205 -1.22232 0.271803 21.0378 2.22603 -156.914 26.3564 177.764 -150.924 65.5152 -173.694 0.0652068 -14.3101 -34.4997 -79.4078 49.1577 -72.8613 11.4805 21.8051 -29.2452 0.420957 0.000575918 0.35866 -2.09447 6.58823 46.1449 -72.6154 -35.5583 84.6291 6.0935 -12.1239 27.4434 0.58676 0.00033077 0.0646653 -47.7979 7.3742 103.372 -2.3811 26.7668 3.90953 -0.0594711 -3.21146 -0.335226 1.30535 -5.79527 9.87001 -57.1283 -1.10506 79.3984 1.8309 25.7772 1.22526 -7.94817 -14.486 1.30488 -0.414532 -0.653912 3.02454 
-24.8672 97.0644 -60.7137 37.2082 -67.6404 -53.5742 -70.1915 0 88.8779 89.7732 71.7099 -2.3707 0.0971526 21.0475 2.62782 -157.116 25.8925 176.64 -149.634 64.9231 -174.819 0.103392 -14.2069 -34.1423 -79.636 51.1633 -70.7849 11.6443 21.4853 -29.597 0.420957 0.000575918 0.35866 -2.06042 6.43582 46.3822 -71.9425 -34.8779 83.9976 5.82839 -11.4536 27.565 0.58676 0.00033077 0.0646653 -46.9878 6.81298 101.998 -1.99964 28.9725 -2.59764 -0.470191 -4.97928 -0.437931 2.04007 -6.57439 7.54607 -56.5981 -1.11248 79.5102 1.40683 26.9996 2.94037 -7.18905 -15.0935 1.31065 -0.668807 0.0845866 3.91378 
